<?xml version="1.0" encoding="utf-8"?>
<!-- Generator: Adobe Illustrator 18.1.1, SVG Export Plug-In . SVG Version: 6.00 Build 0)  -->
<svg version="1.1" id="Layer_1" xmlns="http://www.w3.org/2000/svg" xmlns:xlink="http://www.w3.org/1999/xlink" x="0px" y="0px"
	 viewBox="0 0 458.7 127.3" enable-background="new 0 0 458.7 127.3" xml:space="preserve">
<g>
	<defs>
		<path id="SVGID_1_" d="M0,57.9c0,27.9,22.6,50.5,50.5,50.5c27.9,0,50.5-22.6,50.5-50.5S78.4,7.4,50.5,7.4C22.6,7.4,0,30,0,57.9"/>
	</defs>
	<clipPath id="SVGID_2_">
		<use xlink:href="#SVGID_1_"  overflow="visible"/>
	</clipPath>
	<path clip-path="url(#SVGID_2_)" fill="#4AC6C5" d="M28.9,121L28.9,121c-7.8,0-14.2-6.4-14.2-14.2v-21c0-7.8,6.4-14.2,14.2-14.2
		S43.1,78,43.1,85.8v21C43.1,114.6,36.7,121,28.9,121"/>
	<path clip-path="url(#SVGID_2_)" fill="#F6AE01" d="M68.7,127.3h-0.3c-10.1,0-18.4-8.3-18.4-18.4V74.2c0-10.1,8.3-18.4,18.4-18.4
		h0.3c10.1,0,18.4,8.3,18.4,18.4v34.7C87.1,119,78.9,127.3,68.7,127.3"/>
</g>
<g>
	<defs>
		<rect id="SVGID_3_" width="458.7" height="127.3"/>
	</defs>
	<clipPath id="SVGID_4_">
		<use xlink:href="#SVGID_3_"  overflow="visible"/>
	</clipPath>
	<path clip-path="url(#SVGID_4_)" fill="#F44165" d="M51,69.4c-17.8,0-32.2-14.5-32.2-32.2C18.8,19.5,33.2,5,51,5
		c17.8,0,32.2,14.5,32.2,32.2C83.2,55,68.8,69.4,51,69.4"/>
	<path clip-path="url(#SVGID_4_)" fill="#FFFFFF" d="M51,8c16.1,0,29.2,13.1,29.2,29.2S67.1,66.4,51,66.4S21.8,53.4,21.8,37.2
		S34.9,8,51,8 M51,2C31.6,2,15.8,17.8,15.8,37.2S31.6,72.4,51,72.4s35.2-15.8,35.2-35.2S70.4,2,51,2"/>
	<path clip-path="url(#SVGID_4_)" fill="#363636" d="M136.7,63.1c-3.2,0-6.5-0.1-9.8-0.3c-3.3-0.2-6.2-0.6-8.6-1.3V2.3
		c1.3-0.2,2.7-0.5,4.1-0.7c1.5-0.2,3-0.4,4.5-0.5c1.5-0.1,3-0.2,4.5-0.3c1.5-0.1,2.9-0.1,4.3-0.1c3.7,0,7.1,0.3,10.3,0.8
		c3.2,0.6,5.9,1.5,8.2,2.8c2.3,1.3,4.1,3,5.4,5.1c1.3,2.1,1.9,4.7,1.9,7.8c0,2.9-0.7,5.3-2.1,7.4c-1.4,2.1-3.3,3.7-5.8,4.9
		c3.7,1.2,6.4,3.1,8.2,5.5c1.8,2.4,2.6,5.5,2.6,9.2c0,6.3-2.3,11-6.9,14.1C153.2,61.5,146.2,63.1,136.7,63.1 M129.3,26.2h7.8
		c4.2,0,7.5-0.6,9.9-1.8c2.4-1.2,3.6-3.4,3.6-6.5c0-2.9-1.2-5-3.7-6.2c-2.5-1.2-5.7-1.8-9.7-1.8c-1.7,0-3.2,0-4.5,0.1
		c-1.3,0.1-2.4,0.1-3.4,0.3V26.2z M129.3,34.9v18.6c1.2,0.1,2.6,0.2,4,0.3c1.4,0.1,2.7,0.1,3.9,0.1c2.3,0,4.4-0.1,6.4-0.4
		c2-0.3,3.7-0.8,5.1-1.5c1.4-0.7,2.6-1.7,3.4-2.9c0.9-1.2,1.3-2.8,1.3-4.8c0-3.5-1.3-5.9-3.8-7.2c-2.5-1.3-6-2-10.5-2H129.3z"/>
	<path clip-path="url(#SVGID_4_)" fill="#363636" d="M212.7,60.9c-2.1,0.5-4.7,1.1-8,1.6c-3.3,0.6-6.9,0.8-10.8,0.8
		c-3.7,0-6.8-0.5-9.3-1.6c-2.5-1.1-4.5-2.5-6-4.4c-1.5-1.9-2.6-4.1-3.2-6.7c-0.6-2.6-1-5.5-1-8.6V16.3h10.6v24.1
		c0,4.9,0.7,8.4,2.2,10.6c1.4,2.1,3.9,3.2,7.5,3.2c1.3,0,2.7-0.1,4.1-0.2c1.4-0.1,2.5-0.3,3.2-0.4V16.3h10.6V60.9z"/>
	<path clip-path="url(#SVGID_4_)" fill="#363636" d="M237.1,54.7c2.8,0,4.9-0.3,6.2-1c1.3-0.7,1.9-1.8,1.9-3.5
		c0-1.5-0.7-2.8-2.1-3.8c-1.4-1-3.7-2.1-6.8-3.3c-1.9-0.7-3.7-1.5-5.3-2.2c-1.6-0.8-3-1.7-4.2-2.8c-1.2-1.1-2.1-2.3-2.8-3.8
		c-0.7-1.5-1-3.3-1-5.5c0-4.2,1.6-7.6,4.7-10c3.1-2.4,7.3-3.7,12.7-3.7c2.7,0,5.3,0.3,7.7,0.7c2.5,0.5,4.3,1,5.5,1.5l-1.9,8.6
		c-1.2-0.5-2.7-1-4.5-1.5c-1.8-0.4-3.9-0.7-6.3-0.7c-2.2,0-3.9,0.4-5.3,1.1c-1.4,0.7-2,1.9-2,3.4c0,0.8,0.1,1.4,0.4,2
		c0.3,0.6,0.7,1.1,1.4,1.6c0.6,0.5,1.5,1,2.6,1.5c1.1,0.5,2.3,1,3.9,1.5c2.5,0.9,4.7,1.9,6.4,2.8c1.8,0.9,3.2,1.9,4.4,3.1
		c1.1,1.1,2,2.4,2.5,3.9c0.5,1.5,0.8,3.2,0.8,5.3c0,4.4-1.6,7.7-4.9,10c-3.3,2.3-7.9,3.4-13.9,3.4c-4,0-7.3-0.3-9.8-1
		c-2.5-0.7-4.2-1.2-5.2-1.6l1.8-8.9c1.6,0.6,3.5,1.3,5.7,1.8C231.7,54.4,234.3,54.7,237.1,54.7"/>
	<rect x="265.1" y="16.3" clip-path="url(#SVGID_4_)" fill="#363636" width="10.6" height="46"/>
	<path clip-path="url(#SVGID_4_)" fill="#363636" d="M288.6,17.8c2.1-0.6,4.7-1.1,8-1.7c3.3-0.5,6.9-0.8,10.9-0.8
		c3.8,0,6.9,0.5,9.4,1.5c2.5,1,4.5,2.5,6,4.3c1.5,1.8,2.6,4.1,3.2,6.7c0.6,2.6,0.9,5.5,0.9,8.6v25.9h-10.6V38.2
		c0-2.5-0.2-4.6-0.5-6.3c-0.3-1.7-0.9-3.1-1.6-4.2c-0.7-1.1-1.7-1.9-3-2.4c-1.3-0.5-2.8-0.7-4.6-0.7c-1.4,0-2.8,0.1-4.2,0.3
		c-1.5,0.2-2.6,0.3-3.3,0.4v37.1h-10.6V17.8z"/>
	<path clip-path="url(#SVGID_4_)" fill="#363636" d="M336.9,39.6c0-4,0.6-7.6,1.8-10.6c1.2-3.1,2.8-5.6,4.8-7.6c2-2,4.3-3.6,6.9-4.6
		c2.6-1,5.2-1.5,7.9-1.5c6.3,0,11.3,2,14.8,5.9c3.6,3.9,5.3,9.8,5.3,17.6c0,0.6,0,1.2,0,2c0,0.7-0.1,1.4-0.1,2h-30.4
		c0.3,3.7,1.6,6.6,3.9,8.6c2.3,2,5.7,3,10.1,3c2.6,0,4.9-0.2,7.1-0.7c2.1-0.5,3.8-1,5.1-1.5l1.4,8.7c-0.6,0.3-1.4,0.6-2.4,0.9
		c-1,0.3-2.2,0.6-3.5,0.9c-1.3,0.3-2.7,0.5-4.3,0.7c-1.5,0.2-3.1,0.3-4.7,0.3c-4,0-7.6-0.6-10.6-1.8c-3-1.2-5.5-2.9-7.4-5
		c-1.9-2.1-3.4-4.7-4.3-7.6C337.3,46.2,336.9,43,336.9,39.6 M367.7,34.8c0-1.5-0.2-2.9-0.6-4.2c-0.4-1.3-1-2.5-1.8-3.4
		c-0.8-1-1.8-1.7-2.9-2.3c-1.1-0.6-2.5-0.8-4.1-0.8c-1.6,0-3.1,0.3-4.3,0.9c-1.2,0.6-2.3,1.4-3.1,2.4c-0.9,1-1.5,2.1-2,3.4
		c-0.5,1.3-0.8,2.6-1,4H367.7z"/>
	<path clip-path="url(#SVGID_4_)" fill="#363636" d="M400.5,54.7c2.8,0,4.9-0.3,6.2-1c1.3-0.7,1.9-1.8,1.9-3.5
		c0-1.5-0.7-2.8-2.1-3.8c-1.4-1-3.7-2.1-6.8-3.3c-1.9-0.7-3.7-1.5-5.3-2.2c-1.6-0.8-3-1.7-4.2-2.8c-1.2-1.1-2.1-2.3-2.8-3.8
		c-0.7-1.5-1-3.3-1-5.5c0-4.2,1.6-7.6,4.7-10c3.1-2.4,7.3-3.7,12.7-3.7c2.7,0,5.3,0.3,7.7,0.7c2.5,0.5,4.3,1,5.5,1.5l-1.9,8.6
		c-1.2-0.5-2.7-1-4.5-1.5c-1.8-0.4-3.9-0.7-6.3-0.7c-2.2,0-3.9,0.4-5.3,1.1c-1.4,0.7-2,1.9-2,3.4c0,0.8,0.1,1.4,0.4,2
		c0.3,0.6,0.7,1.1,1.4,1.6c0.6,0.5,1.5,1,2.6,1.5c1.1,0.5,2.3,1,3.9,1.5c2.5,0.9,4.7,1.9,6.4,2.8c1.8,0.9,3.2,1.9,4.4,3.1
		c1.1,1.1,2,2.4,2.5,3.9c0.5,1.5,0.8,3.2,0.8,5.3c0,4.4-1.6,7.7-4.9,10c-3.3,2.3-7.9,3.4-13.9,3.4c-4,0-7.3-0.3-9.8-1
		c-2.5-0.7-4.2-1.2-5.2-1.6l1.8-8.9c1.6,0.6,3.5,1.3,5.7,1.8C395.2,54.4,397.7,54.7,400.5,54.7"/>
	<path clip-path="url(#SVGID_4_)" fill="#363636" d="M440,54.7c2.8,0,4.9-0.3,6.2-1c1.3-0.7,1.9-1.8,1.9-3.5c0-1.5-0.7-2.8-2.1-3.8
		c-1.4-1-3.7-2.1-6.8-3.3c-1.9-0.7-3.7-1.5-5.3-2.2c-1.6-0.8-3-1.7-4.2-2.8c-1.2-1.1-2.1-2.3-2.8-3.8c-0.7-1.5-1-3.3-1-5.5
		c0-4.2,1.6-7.6,4.7-10c3.1-2.4,7.3-3.7,12.7-3.7c2.7,0,5.3,0.3,7.7,0.7c2.5,0.5,4.3,1,5.5,1.5l-1.9,8.6c-1.2-0.5-2.7-1-4.5-1.5
		c-1.8-0.4-3.9-0.7-6.3-0.7c-2.2,0-3.9,0.4-5.3,1.1c-1.4,0.7-2,1.9-2,3.4c0,0.8,0.1,1.4,0.4,2c0.3,0.6,0.7,1.1,1.4,1.6
		c0.6,0.5,1.5,1,2.6,1.5c1.1,0.5,2.3,1,3.9,1.5c2.5,0.9,4.7,1.9,6.4,2.8c1.8,0.9,3.2,1.9,4.4,3.1c1.1,1.1,2,2.4,2.5,3.9
		c0.5,1.5,0.8,3.2,0.8,5.3c0,4.4-1.6,7.7-4.9,10c-3.3,2.3-7.9,3.4-13.9,3.4c-4,0-7.3-0.3-9.8-1c-2.5-0.7-4.2-1.2-5.2-1.6l1.8-8.9
		c1.6,0.6,3.5,1.3,5.7,1.8C434.7,54.4,437.2,54.7,440,54.7"/>
	<path clip-path="url(#SVGID_4_)" fill="#363636" d="M116.6,96.1c0-1.8,0.3-3.5,0.8-5.1c0.6-1.6,1.4-3,2.4-4.1
		c1-1.2,2.3-2.1,3.8-2.7c1.5-0.7,3.2-1,5.1-1c2.3,0,4.5,0.4,6.6,1.3l-1.2,4.7c-0.7-0.3-1.4-0.5-2.2-0.7c-0.8-0.2-1.7-0.3-2.7-0.3
		c-2.2,0-3.9,0.7-5.1,2.1c-1.2,1.4-1.7,3.4-1.7,5.9c0,2.4,0.5,4.4,1.6,5.8c1.1,1.4,2.9,2.1,5.5,2.1c1,0,1.9-0.1,2.9-0.3
		c0.9-0.2,1.8-0.4,2.4-0.7l0.8,4.7c-0.6,0.3-1.6,0.6-2.8,0.8c-1.3,0.3-2.6,0.4-3.9,0.4c-2.1,0-3.9-0.3-5.5-1
		c-1.6-0.6-2.8-1.5-3.9-2.7c-1-1.1-1.8-2.5-2.3-4.1C116.8,99.7,116.6,97.9,116.6,96.1"/>
	<path clip-path="url(#SVGID_4_)" fill="#363636" d="M161.2,96c0,1.9-0.3,3.7-0.8,5.3c-0.6,1.6-1.4,3-2.4,4.1s-2.3,2-3.7,2.6
		c-1.5,0.6-3.1,0.9-4.8,0.9s-3.4-0.3-4.8-0.9c-1.4-0.6-2.7-1.5-3.7-2.6c-1-1.1-1.8-2.5-2.4-4.1c-0.6-1.6-0.9-3.4-0.9-5.3
		c0-1.9,0.3-3.7,0.9-5.3c0.6-1.6,1.4-2.9,2.4-4.1c1.1-1.1,2.3-2,3.7-2.6c1.4-0.6,3-0.9,4.7-0.9c1.7,0,3.3,0.3,4.8,0.9
		c1.5,0.6,2.7,1.5,3.7,2.6c1,1.1,1.8,2.5,2.4,4.1C160.9,92.3,161.2,94.1,161.2,96 M155.4,96c0-2.4-0.5-4.4-1.6-5.8
		c-1-1.4-2.5-2.1-4.4-2.1s-3.3,0.7-4.4,2.1c-1.1,1.4-1.6,3.4-1.6,5.8c0,2.5,0.5,4.4,1.6,5.9c1,1.4,2.5,2.2,4.4,2.2s3.3-0.7,4.4-2.2
		C154.8,100.5,155.4,98.5,155.4,96"/>
	<path clip-path="url(#SVGID_4_)" fill="#363636" d="M180.4,95.4c0-2.6-0.3-4.4-1-5.6c-0.6-1.1-1.8-1.7-3.6-1.7
		c-0.6,0-1.3,0-2.1,0.1c-0.8,0.1-1.3,0.2-1.7,0.2v19.8h-5.7V84.6c1.1-0.3,2.5-0.6,4.3-0.9s3.6-0.4,5.6-0.4c1.7,0,3.1,0.2,4.2,0.7
		c1.1,0.4,2,1,2.7,1.7c0.3-0.3,0.8-0.5,1.3-0.8c0.5-0.3,1.1-0.5,1.8-0.8c0.7-0.2,1.4-0.4,2.1-0.6c0.7-0.2,1.5-0.2,2.2-0.2
		c1.9,0,3.5,0.3,4.7,0.8c1.2,0.5,2.2,1.3,2.9,2.3c0.7,1,1.2,2.2,1.5,3.6c0.3,1.4,0.4,2.9,0.4,4.6v13.8h-5.7V95.4
		c0-2.6-0.3-4.4-0.9-5.6c-0.6-1.1-1.8-1.7-3.6-1.7c-0.9,0-1.8,0.1-2.6,0.4c-0.8,0.3-1.4,0.6-1.8,0.9c0.3,0.8,0.4,1.6,0.5,2.5
		c0.1,0.9,0.1,1.8,0.1,2.8v13.6h-5.7V95.4z"/>
	<path clip-path="url(#SVGID_4_)" fill="#363636" d="M228.5,96.1c0,1.9-0.2,3.6-0.7,5.2c-0.5,1.6-1.2,2.9-2.1,4
		c-0.9,1.1-2,2-3.4,2.6c-1.4,0.6-2.9,0.9-4.6,0.9c-1.2,0-2.2-0.1-3.2-0.4c-1-0.3-1.8-0.6-2.4-0.9v9.5h-5.7V84.6
		c1.2-0.3,2.6-0.6,4.3-0.9s3.5-0.4,5.4-0.4c1.9,0,3.7,0.3,5.2,0.9c1.5,0.6,2.8,1.5,3.9,2.6c1.1,1.1,1.9,2.5,2.5,4
		C228.3,92.3,228.5,94.1,228.5,96.1 M222.7,96.2c0-2.5-0.6-4.5-1.7-5.9s-3-2.1-5.5-2.1c-0.5,0-1.1,0-1.7,0.1c-0.6,0-1.2,0.2-1.7,0.3
		v14.1c0.5,0.3,1.2,0.7,2,1c0.8,0.3,1.7,0.4,2.7,0.4c2.1,0,3.6-0.7,4.5-2.1C222.2,100.5,222.7,98.6,222.7,96.2"/>
	<path clip-path="url(#SVGID_4_)" fill="#363636" d="M241.9,83.2c1.9,0,3.5,0.2,4.7,0.7c1.3,0.5,2.3,1.1,3.1,2
		c0.8,0.8,1.3,1.9,1.6,3.1c0.3,1.2,0.5,2.5,0.5,4v14.9c-0.9,0.2-2.2,0.4-4,0.7c-1.8,0.3-3.8,0.4-6,0.4c-1.5,0-2.8-0.1-4-0.4
		c-1.2-0.3-2.3-0.7-3.1-1.4s-1.5-1.4-2-2.4c-0.5-1-0.7-2.2-0.7-3.7c0-1.4,0.3-2.6,0.8-3.6c0.5-1,1.3-1.8,2.2-2.4
		c0.9-0.6,2-1,3.3-1.3c1.2-0.3,2.5-0.4,3.9-0.4c0.6,0,1.3,0,2,0.1c0.7,0.1,1.4,0.2,2.2,0.4v-0.9c0-0.7-0.1-1.3-0.2-1.9
		c-0.2-0.6-0.4-1.1-0.8-1.6c-0.4-0.5-0.9-0.8-1.6-1.1c-0.6-0.3-1.4-0.4-2.4-0.4c-1.3,0-2.5,0.1-3.6,0.3c-1.1,0.2-2,0.4-2.7,0.7
		l-0.7-4.6c0.7-0.3,1.8-0.5,3.1-0.8C238.9,83.3,240.4,83.2,241.9,83.2 M242.4,104.4c1.8,0,3.1-0.1,4-0.3v-6.3
		c-0.3-0.1-0.8-0.2-1.4-0.3c-0.6-0.1-1.3-0.1-2-0.1c-0.6,0-1.3,0-1.9,0.1c-0.6,0.1-1.2,0.3-1.7,0.5c-0.5,0.3-0.9,0.6-1.2,1.1
		c-0.3,0.5-0.5,1-0.5,1.7c0,1.3,0.4,2.3,1.3,2.8C239.8,104.1,241,104.4,242.4,104.4"/>
	<path clip-path="url(#SVGID_4_)" fill="#363636" d="M272.2,88.9c-0.5-0.2-1.1-0.3-2-0.5c-0.8-0.2-1.8-0.3-2.9-0.3
		c-0.6,0-1.3,0.1-2,0.2c-0.7,0.1-1.2,0.2-1.5,0.3v19.7h-5.7V84.9c1.1-0.4,2.5-0.8,4.1-1.2c1.6-0.4,3.5-0.5,5.5-0.5
		c0.4,0,0.8,0,1.3,0.1c0.5,0,1,0.1,1.5,0.2c0.5,0.1,1,0.2,1.5,0.3c0.5,0.1,0.8,0.2,1.1,0.3L272.2,88.9z"/>
	<path clip-path="url(#SVGID_4_)" fill="#363636" d="M282.8,76.6c0,1.1-0.3,1.9-1,2.5c-0.7,0.6-1.5,0.9-2.4,0.9
		c-1,0-1.8-0.3-2.5-0.9c-0.7-0.6-1-1.5-1-2.5c0-1.1,0.3-2,1-2.6c0.7-0.6,1.5-0.9,2.5-0.9c0.9,0,1.8,0.3,2.4,0.9
		C282.5,74.6,282.8,75.5,282.8,76.6 M282.2,108.4h-5.7V83.8h5.7V108.4z"/>
	<path clip-path="url(#SVGID_4_)" fill="#363636" d="M295,104.3c1.5,0,2.6-0.2,3.3-0.5c0.7-0.4,1-1,1-1.9c0-0.8-0.4-1.5-1.1-2
		c-0.7-0.5-2-1.1-3.6-1.7c-1-0.4-2-0.8-2.8-1.2c-0.9-0.4-1.6-0.9-2.2-1.5c-0.6-0.6-1.1-1.2-1.5-2c-0.4-0.8-0.5-1.8-0.5-2.9
		c0-2.3,0.8-4,2.5-5.3c1.7-1.3,3.9-2,6.8-2c1.4,0,2.8,0.1,4.1,0.4c1.3,0.3,2.3,0.5,3,0.8l-1,4.6c-0.6-0.3-1.4-0.5-2.4-0.8
		c-1-0.2-2.1-0.4-3.4-0.4c-1.2,0-2.1,0.2-2.8,0.6c-0.7,0.4-1.1,1-1.1,1.8c0,0.4,0.1,0.8,0.2,1.1c0.1,0.3,0.4,0.6,0.7,0.9
		c0.3,0.3,0.8,0.5,1.4,0.8c0.6,0.3,1.3,0.5,2.1,0.8c1.3,0.5,2.5,1,3.4,1.5c0.9,0.5,1.7,1,2.3,1.6c0.6,0.6,1.1,1.3,1.3,2.1
		c0.3,0.8,0.4,1.7,0.4,2.8c0,2.3-0.9,4.1-2.6,5.3c-1.7,1.2-4.2,1.8-7.5,1.8c-2.2,0-3.9-0.2-5.2-0.5c-1.3-0.4-2.2-0.6-2.8-0.9l1-4.7
		c0.8,0.3,1.9,0.7,3,1C292.1,104.1,293.5,104.3,295,104.3"/>
	<path clip-path="url(#SVGID_4_)" fill="#363636" d="M331.8,96c0,1.9-0.3,3.7-0.8,5.3c-0.6,1.6-1.4,3-2.4,4.1s-2.3,2-3.7,2.6
		c-1.5,0.6-3.1,0.9-4.8,0.9s-3.4-0.3-4.8-0.9c-1.4-0.6-2.7-1.5-3.7-2.6s-1.8-2.5-2.4-4.1c-0.6-1.6-0.9-3.4-0.9-5.3
		c0-1.9,0.3-3.7,0.9-5.3c0.6-1.6,1.4-2.9,2.4-4.1c1-1.1,2.3-2,3.7-2.6c1.4-0.6,3-0.9,4.7-0.9c1.7,0,3.3,0.3,4.8,0.9
		c1.5,0.6,2.7,1.5,3.7,2.6c1,1.1,1.8,2.5,2.4,4.1C331.6,92.3,331.8,94.1,331.8,96 M326,96c0-2.4-0.5-4.4-1.6-5.8
		c-1-1.4-2.5-2.1-4.4-2.1s-3.3,0.7-4.4,2.1c-1.1,1.4-1.6,3.4-1.6,5.8c0,2.5,0.5,4.4,1.6,5.9c1,1.4,2.5,2.2,4.4,2.2s3.3-0.7,4.4-2.2
		C325.5,100.5,326,98.5,326,96"/>
	<path clip-path="url(#SVGID_4_)" fill="#363636" d="M337.1,84.6c1.1-0.3,2.5-0.6,4.3-0.9c1.8-0.3,3.7-0.4,5.8-0.4
		c2,0,3.7,0.3,5,0.8c1.3,0.5,2.4,1.3,3.2,2.3c0.8,1,1.4,2.2,1.7,3.6c0.3,1.4,0.5,2.9,0.5,4.6v13.8h-5.7V95.4c0-1.3-0.1-2.4-0.3-3.4
		s-0.5-1.7-0.8-2.3c-0.4-0.6-0.9-1-1.6-1.3c-0.7-0.3-1.5-0.4-2.5-0.4c-0.7,0-1.5,0-2.3,0.1c-0.8,0.1-1.4,0.2-1.7,0.2v19.8h-5.7V84.6
		z"/>
	<path clip-path="url(#SVGID_4_)" fill="#363636" d="M374.4,96.1c0-1.8,0.3-3.5,0.8-5.1c0.6-1.6,1.4-3,2.4-4.1
		c1-1.2,2.3-2.1,3.8-2.7c1.5-0.7,3.2-1,5.1-1c2.3,0,4.5,0.4,6.6,1.3l-1.2,4.7c-0.7-0.3-1.4-0.5-2.2-0.7c-0.8-0.2-1.7-0.3-2.7-0.3
		c-2.2,0-3.9,0.7-5.1,2.1c-1.2,1.4-1.7,3.4-1.7,5.9c0,2.4,0.5,4.4,1.6,5.8c1.1,1.4,2.9,2.1,5.5,2.1c1,0,1.9-0.1,2.9-0.3
		c0.9-0.2,1.8-0.4,2.4-0.7l0.8,4.7c-0.6,0.3-1.6,0.6-2.8,0.8c-1.3,0.3-2.6,0.4-3.9,0.4c-2.1,0-3.9-0.3-5.5-1s-2.8-1.5-3.9-2.7
		c-1-1.1-1.8-2.5-2.3-4.1C374.6,99.7,374.4,97.9,374.4,96.1"/>
	<path clip-path="url(#SVGID_4_)" fill="#363636" d="M419,96c0,1.9-0.3,3.7-0.8,5.3c-0.6,1.6-1.4,3-2.4,4.1c-1,1.1-2.3,2-3.7,2.6
		c-1.5,0.6-3.1,0.9-4.8,0.9c-1.8,0-3.4-0.3-4.8-0.9c-1.4-0.6-2.7-1.5-3.7-2.6c-1-1.1-1.8-2.5-2.4-4.1c-0.6-1.6-0.9-3.4-0.9-5.3
		c0-1.9,0.3-3.7,0.9-5.3c0.6-1.6,1.4-2.9,2.4-4.1c1-1.1,2.3-2,3.7-2.6c1.4-0.6,3-0.9,4.7-0.9c1.7,0,3.3,0.3,4.8,0.9s2.7,1.5,3.7,2.6
		c1,1.1,1.8,2.5,2.4,4.1C418.7,92.3,419,94.1,419,96 M413.2,96c0-2.4-0.5-4.4-1.6-5.8c-1-1.4-2.5-2.1-4.4-2.1
		c-1.9,0-3.3,0.7-4.4,2.1c-1,1.4-1.6,3.4-1.6,5.8c0,2.5,0.5,4.4,1.6,5.9c1,1.4,2.5,2.2,4.4,2.2c1.9,0,3.3-0.7,4.4-2.2
		C412.6,100.5,413.2,98.5,413.2,96"/>
	<path clip-path="url(#SVGID_4_)" fill="#363636" d="M438.2,95.4c0-2.6-0.3-4.4-1-5.6c-0.6-1.1-1.8-1.7-3.6-1.7
		c-0.6,0-1.3,0-2.1,0.1c-0.8,0.1-1.3,0.2-1.7,0.2v19.8h-5.7V84.6c1.1-0.3,2.5-0.6,4.3-0.9c1.8-0.3,3.6-0.4,5.6-0.4
		c1.7,0,3.1,0.2,4.2,0.7c1.1,0.4,2,1,2.7,1.7c0.3-0.3,0.8-0.5,1.3-0.8c0.5-0.3,1.1-0.5,1.8-0.8c0.7-0.2,1.4-0.4,2.1-0.6
		c0.7-0.2,1.5-0.2,2.2-0.2c1.9,0,3.5,0.3,4.7,0.8c1.2,0.5,2.2,1.3,2.9,2.3c0.7,1,1.2,2.2,1.5,3.6c0.3,1.4,0.4,2.9,0.4,4.6v13.8h-5.7
		V95.4c0-2.6-0.3-4.4-0.9-5.6c-0.6-1.1-1.8-1.7-3.6-1.7c-0.9,0-1.8,0.1-2.6,0.4c-0.8,0.3-1.4,0.6-1.8,0.9c0.3,0.8,0.4,1.6,0.5,2.5
		c0.1,0.9,0.1,1.8,0.1,2.8v13.6h-5.7V95.4z"/>
	<path clip-path="url(#SVGID_4_)" fill="#F44165" d="M278.9,10.4c0,4.5-3.7,8.2-8.2,8.2c-4.5,0-8.2-3.7-8.2-8.2
		c0-4.5,3.7-8.2,8.2-8.2C275.2,2.2,278.9,5.9,278.9,10.4"/>
	
		<circle clip-path="url(#SVGID_4_)" fill="none" stroke="#FFFFFF" stroke-width="4.5" stroke-miterlimit="10" cx="270.7" cy="10.4" r="8.2"/>
	<path clip-path="url(#SVGID_4_)" fill="#363636" d="M370.2,104.9c0,2.3-1.9,4.2-4.2,4.2c-2.3,0-4.2-1.9-4.2-4.2s1.9-4.2,4.2-4.2
		C368.3,100.7,370.2,102.6,370.2,104.9"/>
</g>
</svg>
